<?xml version="1.0" encoding="UTF-8" standalone="no"?>
<svg
   xmlns:dc="http://purl.org/dc/elements/1.1/"
   xmlns:cc="http://creativecommons.org/ns#"
   xmlns:rdf="http://www.w3.org/1999/02/22-rdf-syntax-ns#"
   xmlns:svg="http://www.w3.org/2000/svg"
   xmlns="http://www.w3.org/2000/svg"
   xmlns:sodipodi="http://sodipodi.sourceforge.net/DTD/sodipodi-0.dtd"
   xmlns:inkscape="http://www.inkscape.org/namespaces/inkscape"
   inkscape:version="1.0 (4035a4fb49, 2020-05-01)"
   sodipodi:docname="reciplease-book.svg"
   version="1.1"
   width="512"
   viewBox="0 0 512 512"
   height="512"
   enable-background="new 0 0 512 512"
   id="Layer_1">
  <metadata
     id="metadata173">
    <rdf:RDF>
      <cc:Work
         rdf:about="">
        <dc:format>image/svg+xml</dc:format>
        <dc:type
           rdf:resource="http://purl.org/dc/dcmitype/StillImage" />
        <dc:title></dc:title>
      </cc:Work>
    </rdf:RDF>
  </metadata>
  <defs
     id="defs171" />
  <sodipodi:namedview
     inkscape:current-layer="g156"
     inkscape:window-maximized="1"
     inkscape:window-y="-9"
     inkscape:window-x="-9"
     inkscape:cy="256"
     inkscape:cx="158.22222"
     inkscape:zoom="1.96875"
     showgrid="false"
     id="namedview169"
     inkscape:window-height="1361"
     inkscape:window-width="2560"
     inkscape:pageshadow="2"
     inkscape:pageopacity="0"
     guidetolerance="10"
     gridtolerance="10"
     objecttolerance="10"
     borderopacity="1"
     bordercolor="#666666"
     pagecolor="#ffffff" />
  <g
     id="g166">
    <g
       id="g156"
       fill-rule="evenodd"
       clip-rule="evenodd">
      <path
         style="fill:#f69e7b;fill-opacity:1"
         id="path142"
         fill="#db71a9"
         d="m96.002 10v420.436h319.997 22.111c9.84 0 17.891-8.05 17.891-17.891v-384.654c0-9.84-8.05-17.891-17.891-17.891z" />
      <path
         style="fill:#383e56;fill-opacity:1"
         id="path144"
         fill="#e9aacb"
         d="m96.002 430.436v-420.436h-4.22c-19.679 0-35.782 16.102-35.782 35.782v420.436c0-19.681 16.101-35.782 35.781-35.782z" />
      <path
         id="path146"
         fill="#fff"
         d="m415.999 430.436h-319.997-4.22c-19.68 0-35.781 16.101-35.781 35.782-.001 19.681 16.102 35.782 35.78 35.782h324.217v-71.564z" />
      <path
         style="fill:#383e56;fill-opacity:1"
         id="path148"
         fill="#e9aacb"
         d="m415.999 430.436v71.564h22.111c9.84 0 17.891-8.051 17.891-17.891v-71.563c0 9.84-8.05 17.891-17.891 17.891h-22.111z" />
      <path
         d="m 194.183,304.398 h 163.636 v -89.579 c 21.861,-4.961 38.182,-24.51 38.182,-47.872 0,-27.112 -21.979,-49.091 -49.091,-49.091 -9.546,0 -18.454,2.728 -25.992,7.442 -7.62,-17.233 -24.862,-29.261 -44.917,-29.261 -20.055,0 -37.298,12.027 -44.917,29.261 -7.538,-4.714 -16.446,-7.442 -25.992,-7.442 -27.112,0 -49.091,21.979 -49.091,49.091 0,23.362 16.32,42.911 38.182,47.872 z"
         fill="#ffffff"
         id="path150" />
      <path
         style="fill:#ffffff;fill-opacity:1"
         d="M 357.819,304.398 H 194.183 v 34.548 c 0,3 2.455,5.454 5.454,5.454 h 152.728 c 3,0 5.454,-2.455 5.454,-5.454 z"
         fill="#e3eaef"
         id="path152" />
    </g>
    <g
       id="g164">
      <path
         id="path158"
         d="m438.109 0h-346.328c-25.243 0-45.781 20.538-45.781 45.782v420.436c0 25.244 20.538 45.782 45.781 45.782h346.328c15.379 0 27.891-12.512 27.891-27.891v-456.218c0-15.379-12.512-27.891-27.891-27.891zm-372.109 466.218c0-14.216 11.565-25.782 25.781-25.782h314.217v51.564h-314.217c-14.216 0-25.781-11.565-25.781-25.782zm380 17.891c0 4.351-3.54 7.891-7.891 7.891h-12.111v-51.563h12.111c2.739 0 5.388-.397 7.891-1.136zm0-71.563c0 4.351-3.54 7.891-7.891 7.891h-332.108v-155.222c0-5.523-4.477-10-10-10s-10 4.477-10 10v155.591c-7.348.93-14.16 3.602-20.001 7.597v-382.621c0-12.229 8.56-22.489 20.001-25.121v154.553c0 5.523 4.477 10 10 10s10-4.477 10-10v-155.214h332.108c4.351 0 7.891 3.54 7.891 7.891z" />
      <path
         id="path160"
         d="m346.91 107.855c-7.56 0-14.992 1.438-21.927 4.21-10.863-16.081-29.144-26.029-48.982-26.029s-38.119 9.948-48.982 26.029c-6.935-2.771-14.367-4.21-21.927-4.21-32.583 0-59.091 26.508-59.091 59.091 0 25.036 15.346 46.751 38.182 55.297v116.701c0 8.521 6.933 15.455 15.454 15.455h152.728c8.521 0 15.454-6.933 15.454-15.455v-116.7c22.835-8.546 38.181-30.262 38.181-55.297 0-32.583-26.507-59.092-59.09-59.092zm-142.727 226.545v-20.002h143.636v20.002zm151.423-129.333c-4.555 1.033-7.787 5.082-7.787 9.752v79.579h-143.636v-79.579c0-4.67-3.232-8.719-7.787-9.752-17.896-4.061-30.395-19.737-30.395-38.12 0-21.555 17.536-39.091 39.091-39.091 7.341 0 14.496 2.047 20.689 5.92 2.458 1.538 5.463 1.933 8.237 1.082 2.772-.851 5.039-2.864 6.211-5.516 6.259-14.157 20.3-23.305 35.771-23.305s29.512 9.147 35.771 23.305c1.173 2.652 3.439 4.665 6.211 5.516 2.773.852 5.778.456 8.237-1.082 6.194-3.873 13.348-5.92 20.69-5.92 21.554 0 39.09 17.536 39.09 39.091.001 18.383-12.498 34.059-30.393 38.12z" />
      <path
         id="path162"
         d="m96.001 210.215c-5.523 0-10 4.48-10 10.003s4.477 10 10 10 10-4.477 10-10v-.007c0-5.523-4.477-9.996-10-9.996z" />
    </g>
  </g>
</svg>
